<svg version="1.1" id="Layer_1" xmlns="http://www.w3.org/2000/svg" xmlns:xlink="http://www.w3.org/1999/xlink" x="0px" y="0px"
	 width="100%" viewBox="0 0 119 114" enable-background="new 0 0 119 114" xml:space="preserve">
<path fill="#430FFF" opacity="1.000000" stroke="none" 
	d="
M110.000000,1.000000 
	C110.750000,1.000000 111.500000,1.000000 112.534935,1.397613 
	C114.461708,10.245182 116.103546,18.695137 117.839119,27.627502 
	C81.691116,34.213554 45.937038,40.727837 10.182961,47.242119 
	C12.214481,48.248791 14.176066,48.241482 16.137583,48.249905 
	C38.433372,48.345634 60.729153,48.443779 82.980980,48.861969 
	C81.533325,50.398228 80.034218,51.521988 78.751961,52.854424 
	C77.390800,54.268848 76.235428,55.881313 74.538895,57.537498 
	C54.728539,57.667706 35.369480,57.667706 16.170179,57.667706 
	C16.170179,67.367294 16.170179,76.222740 16.170179,85.025032 
	C18.401278,85.221161 20.213518,85.380470 21.982620,85.859734 
	C16.812391,89.457153 11.685301,92.734619 6.434015,95.557816 
	C5.448144,76.343979 8.101563,57.451347 4.231123,38.809452 
	C3.270400,34.182148 2.083133,29.601885 1.000000,25.000000 
	C1.000000,23.933481 1.000000,22.866964 1.420379,21.502468 
	C19.578613,18.081646 37.320702,14.982598 55.052975,11.828379 
	C69.076553,9.333861 83.100922,6.839669 97.097328,4.198997 
	C101.444656,3.378797 105.701653,2.079799 110.000000,1.000000 
M67.897636,16.715717 
	C64.567268,17.335409 60.130531,16.840019 58.142448,18.812571 
	C54.292187,22.632744 51.820381,27.842236 48.777306,32.475956 
	C49.032379,32.935802 49.287449,33.395649 49.542522,33.855492 
	C53.617573,32.590828 58.527321,32.326775 61.552326,29.803350 
	C65.176888,26.779778 67.192863,21.827871 70.455917,17.360201 
	C70.542816,16.943705 70.629707,16.527206 70.716599,16.110706 
	C70.056557,16.317211 69.396523,16.523716 67.897636,16.715717 
M44.801289,21.921038 
	C44.563862,21.564562 44.331249,20.899851 44.088314,20.896053 
	C34.509930,20.746433 26.222219,27.450289 23.038774,38.164005 
	C26.186567,37.505558 29.184914,37.000053 32.108231,36.215118 
	C33.552330,35.827366 35.304035,35.271538 36.145512,34.191193 
	C39.060703,30.448488 41.637589,26.442270 44.801289,21.921038 
M85.214348,13.025146 
	C81.567642,17.714954 77.920937,22.404764 73.972404,27.482731 
	C88.147797,30.670458 90.212463,19.151197 96.634659,11.587230 
	C92.419174,12.067825 89.209343,12.433769 85.214348,13.025146 
M104.865288,15.405281 
	C103.087082,18.073544 101.308876,20.741808 98.750938,24.580076 
	C103.681854,23.490595 106.875870,22.784882 110.027199,22.088598 
	C109.215523,18.369637 108.541855,15.282963 107.774170,11.765544 
	C106.706726,13.078660 106.007080,13.939331 104.865288,15.405281 
M11.486227,26.749651 
	C10.768025,27.249096 9.388513,27.828526 9.437695,28.235159 
	C9.787486,31.127254 10.429315,33.984032 11.143811,37.717663 
	C14.171442,33.285477 16.557301,29.792789 19.670618,25.235165 
	C16.383411,25.901571 14.357606,26.312258 11.486227,26.749651 
z"/>
<path fill="#FFFFFF" opacity="1.000000" stroke="none" 
	d="
M83.024933,48.541275 
	C60.729153,48.443779 38.433372,48.345634 16.137583,48.249905 
	C14.176066,48.241482 12.214481,48.248791 10.182961,47.242119 
	C45.937038,40.727837 81.691116,34.213554 117.839119,27.627502 
	C116.103546,18.695137 114.461708,10.245182 112.909935,1.397613 
	C115.314613,1.000000 117.629219,1.000000 120.000000,1.000000 
	C120.000000,16.687523 120.000000,32.375103 119.551254,48.532204 
	C116.402512,49.056412 113.702522,49.111095 110.613998,49.090084 
	C108.145859,48.899406 106.066254,48.784424 103.546394,48.534523 
	C99.735420,48.476822 96.364693,48.554039 92.556595,48.502472 
	C89.087791,48.429550 86.056358,48.485413 83.024933,48.541275 
z"/>
<path fill="#FFFFFF" opacity="1.000000" stroke="none" 
	d="
M109.531342,1.000000 
	C105.701653,2.079799 101.444656,3.378797 97.097328,4.198997 
	C83.100922,6.839669 69.076553,9.333861 55.052975,11.828379 
	C37.320702,14.982598 19.578613,18.081646 1.420379,21.102245 
	C1.000000,14.356022 1.000000,7.712043 1.000000,1.000000 
	C37.020866,1.000000 73.041779,1.000000 109.531342,1.000000 
z"/>
<path fill="#FFFFFF" opacity="1.000000" stroke="none" 
	d="
M1.000000,25.468658 
	C2.083133,29.601885 3.270400,34.182148 4.231123,38.809452 
	C8.101563,57.451347 5.448144,76.343979 6.326521,95.984116 
	C6.446517,98.901848 6.549812,100.938988 6.518218,103.379120 
	C6.480772,105.182648 6.578215,106.583191 6.540689,108.371933 
	C6.495891,109.841621 6.586062,110.923103 6.534426,112.364594 
	C6.261745,113.483070 6.130872,114.241531 6.000000,115.000000 
	C4.341046,115.000000 2.682092,115.000000 1.000000,115.000000 
	C1.000000,85.312439 1.000000,55.624878 1.000000,25.468658 
z"/>
<path fill="#B0006E" opacity="1.000000" stroke="none" 
	d="
M120.000000,77.000000 
	C120.000000,79.370560 120.000000,81.741112 119.633698,84.575912 
	C118.482368,85.282089 117.609695,85.377678 116.925247,85.787560 
	C103.120735,94.054527 89.312317,102.315819 75.582405,110.705452 
	C73.833290,111.774239 72.516876,113.551147 71.000000,115.000000 
	C68.958336,115.000000 66.916664,115.000000 64.510162,114.663773 
	C65.564461,113.010620 66.813248,111.416718 68.430565,110.422043 
	C78.419739,104.278473 88.563118,98.383133 98.490852,92.143715 
	C101.279778,90.390930 103.516113,87.758888 106.441345,85.473274 
	C109.497826,85.783585 110.667786,84.595551 110.853607,81.968040 
	C114.117523,80.286118 117.058762,78.643059 120.000000,77.000000 
z"/>
<path fill="#BB0061" opacity="1.000000" stroke="none" 
	d="
M71.444168,115.000000 
	C72.516876,113.551147 73.833290,111.774239 75.582405,110.705452 
	C89.312317,102.315819 103.120735,94.054527 116.925247,85.787560 
	C117.609695,85.377678 118.482368,85.282089 119.633698,85.020081 
	C120.000000,86.066673 120.000000,87.133339 119.656754,88.671539 
	C107.028572,96.439217 94.715660,103.689201 82.496269,111.093513 
	C81.066696,111.959747 80.152908,113.677185 79.000000,115.000000 
	C76.629440,115.000000 74.258888,115.000000 71.444168,115.000000 
z"/>
<path fill="#9E0084" opacity="1.000000" stroke="none" 
	d="
M57.000000,115.000000 
	C54.629444,115.000000 52.258884,115.000000 49.521141,114.660034 
	C49.509571,113.770798 49.736233,113.007812 50.239891,112.703926 
	C59.768238,106.955017 69.435326,101.428032 78.838387,95.482933 
	C83.472237,92.553177 87.630638,88.871452 92.428528,85.475388 
	C93.978165,85.525696 95.103462,85.630608 96.356979,85.771065 
	C96.485199,85.806602 96.751175,85.838776 96.751175,85.838776 
	C96.751175,85.838776 97.018951,85.830177 97.145821,85.824951 
	C97.441368,85.806297 97.608231,85.780884 98.068695,85.615021 
	C98.578522,85.499374 98.792908,85.512199 98.975853,85.856499 
	C98.162895,87.184776 97.581680,88.510086 96.568901,89.127602 
	C86.367462,95.347572 76.019218,101.329781 65.887222,107.658920 
	C62.656784,109.676880 59.947662,112.529373 57.000000,115.000000 
z"/>
<path fill="#A80079" opacity="1.000000" stroke="none" 
	d="
M57.437500,115.000000 
	C59.947662,112.529373 62.656784,109.676880 65.887222,107.658920 
	C76.019218,101.329781 86.367462,95.347572 96.568901,89.127602 
	C97.581680,88.510086 98.162895,87.184776 99.410927,85.803818 
	C101.920265,85.456482 103.963089,85.493317 106.005920,85.530151 
	C103.516113,87.758888 101.279778,90.390930 98.490852,92.143715 
	C88.563118,98.383133 78.419739,104.278473 68.430565,110.422043 
	C66.813248,111.416718 65.564461,113.010620 64.072662,114.663773 
	C61.958332,115.000000 59.916668,115.000000 57.437500,115.000000 
z"/>
<path fill="#6805C9" opacity="1.000000" stroke="none" 
	d="
M6.437469,115.000000 
	C6.130872,114.241531 6.261745,113.483070 6.860710,112.326691 
	C17.877583,105.842400 28.495831,99.871773 38.936901,93.605904 
	C42.519199,91.456100 45.658302,88.567787 49.438110,86.004440 
	C51.918583,86.047928 53.960831,86.103836 55.890518,86.472229 
	C55.209949,87.375740 54.737415,88.125000 54.059574,88.533981 
	C44.254787,94.449585 34.341049,100.189430 24.635271,106.262039 
	C20.538301,108.825394 16.865568,112.066803 13.000000,115.000000 
	C10.958313,115.000000 8.916626,115.000000 6.437469,115.000000 
z"/>
<path fill="#7F00A9" opacity="1.000000" stroke="none" 
	d="
M32.000000,115.000000 
	C30.285625,115.000000 28.571249,115.000000 26.499184,114.659554 
	C27.242373,113.145241 28.148191,111.647484 29.474844,110.848511 
	C40.557293,104.174110 51.773396,97.720039 62.803520,90.961769 
	C64.869865,89.695702 66.285568,87.367722 68.435684,85.468048 
	C70.913780,85.447632 72.957710,85.488960 74.967773,85.863884 
	C74.271729,87.071838 73.791817,88.246986 72.919960,88.775276 
	C60.490448,96.306686 47.984051,103.711411 35.570904,111.269379 
	C34.150154,112.134438 33.179401,113.738564 32.000000,115.000000 
z"/>
<path fill="#95008F" opacity="1.000000" stroke="none" 
	d="
M92.004189,85.529999 
	C87.630638,88.871452 83.472237,92.553177 78.838387,95.482933 
	C69.435326,101.428032 59.768238,106.955017 50.239891,112.703926 
	C49.736233,113.007812 49.509571,113.770798 49.076981,114.660034 
	C47.285641,115.000000 45.571285,115.000000 43.501930,114.663277 
	C44.168594,113.287010 45.028805,111.979584 46.237827,111.250916 
	C54.779671,106.102859 63.509785,101.258377 71.939217,95.935966 
	C76.856667,92.831047 81.329643,89.022202 86.428581,85.474487 
	C88.571106,85.455940 90.287651,85.492973 92.004189,85.529999 
z"/>
<path fill="#7600B4" opacity="1.000000" stroke="none" 
	d="
M68.001526,85.529785 
	C66.285568,87.367722 64.869865,89.695702 62.803520,90.961769 
	C51.773396,97.720039 40.557293,104.174110 29.474844,110.848511 
	C28.148191,111.647484 27.242373,113.145241 26.070747,114.659554 
	C23.958334,115.000000 21.916666,115.000000 19.511929,114.661865 
	C20.310905,113.193771 21.307629,111.787865 22.660898,110.977051 
	C34.502968,103.881927 46.431831,96.931572 58.265900,89.823303 
	C59.718845,88.950577 60.765820,87.401978 62.379829,86.094345 
	C64.506332,85.857994 66.253937,85.693893 68.001526,85.529785 
z"/>
<path fill="#6E00BD" opacity="1.000000" stroke="none" 
	d="
M62.000927,86.166588 
	C60.765820,87.401978 59.718845,88.950577 58.265900,89.823303 
	C46.431831,96.931572 34.502968,103.881927 22.660898,110.977051 
	C21.307629,111.787865 20.310905,113.193771 19.074429,114.661865 
	C17.285641,115.000000 15.571283,115.000000 13.428463,115.000000 
	C16.865568,112.066803 20.538301,108.825394 24.635271,106.262039 
	C34.341049,100.189430 44.254787,94.449585 54.059574,88.533981 
	C54.737415,88.125000 55.209949,87.375740 56.314766,86.402596 
	C58.568024,86.069183 60.284473,86.117889 62.000927,86.166588 
z"/>
<path fill="#8D0098" opacity="1.000000" stroke="none" 
	d="
M86.002594,85.530052 
	C81.329643,89.022202 76.856667,92.831047 71.939217,95.935966 
	C63.509785,101.258377 54.779671,106.102859 46.237827,111.250916 
	C45.028805,111.979584 44.168594,113.287010 43.073467,114.663277 
	C41.611111,115.000000 40.222221,115.000000 38.487228,114.659927 
	C39.534615,112.989983 40.744934,111.360649 42.350967,110.378220 
	C53.810665,103.368149 65.383293,96.542366 76.823151,89.500618 
	C78.182404,88.663940 78.956627,86.876854 80.427795,85.473267 
	C82.569908,85.454170 84.286247,85.492111 86.002594,85.530052 
z"/>
<path fill="#C40056" opacity="1.000000" stroke="none" 
	d="
M79.428467,115.000000 
	C80.152908,113.677185 81.066696,111.959747 82.496269,111.093513 
	C94.715660,103.689201 107.028572,96.439217 119.656754,89.071533 
	C120.000000,90.388893 120.000000,91.777779 119.626602,93.603172 
	C111.362740,98.446648 103.387314,102.710503 95.618591,107.322540 
	C91.878082,109.543159 88.527275,112.420204 85.000000,115.000000 
	C83.285645,115.000000 81.571281,115.000000 79.428467,115.000000 
z"/>
<path fill="#8700A0" opacity="1.000000" stroke="none" 
	d="
M80.002037,85.530319 
	C78.956627,86.876854 78.182404,88.663940 76.823151,89.500618 
	C65.383293,96.542366 53.810665,103.368149 42.350967,110.378220 
	C40.744934,111.360649 39.534615,112.989983 38.070560,114.659927 
	C36.285641,115.000000 34.571285,115.000000 32.428463,115.000000 
	C33.179401,113.738564 34.150154,112.134438 35.570904,111.269379 
	C47.984051,103.711411 60.490448,96.306686 72.919960,88.775276 
	C73.791817,88.246986 74.271729,87.071838 75.381721,85.805191 
	C77.220383,85.452042 78.611206,85.491180 80.002037,85.530319 
z"/>
<path fill="#CD004B" opacity="1.000000" stroke="none" 
	d="
M85.437500,115.000000 
	C88.527275,112.420204 91.878082,109.543159 95.618591,107.322540 
	C103.387314,102.710503 111.362740,98.446648 119.626602,94.019836 
	C120.000000,95.066673 120.000000,96.133339 119.628876,97.619614 
	C110.364067,103.241714 101.465439,108.435844 92.595528,113.678574 
	C92.255470,113.879562 92.192230,114.548904 92.000000,115.000000 
	C89.958336,115.000000 87.916664,115.000000 85.437500,115.000000 
z"/>
<path fill="#D70040" opacity="1.000000" stroke="none" 
	d="
M92.444168,115.000000 
	C92.192230,114.548904 92.255470,113.879562 92.595528,113.678574 
	C101.465439,108.435844 110.364067,103.241714 119.628876,98.019608 
	C120.000000,99.066673 120.000000,100.133339 119.647903,101.665146 
	C113.662788,105.224396 107.975060,108.225792 102.442581,111.490280 
	C101.326622,112.148773 100.798912,113.804199 100.000000,115.000000 
	C97.629440,115.000000 95.258888,115.000000 92.444168,115.000000 
z"/>
<path fill="#6600C6" opacity="1.000000" stroke="none" 
	d="
M111.002533,49.165779 
	C113.702522,49.111095 116.402512,49.056412 119.551254,49.000862 
	C120.000000,49.750000 120.000000,50.500000 119.638367,51.659508 
	C116.193352,53.955509 113.109962,55.842003 109.586243,57.686665 
	C107.098244,57.525650 105.050591,57.406467 103.051109,56.976898 
	C104.416870,55.501774 105.768944,54.373314 107.042633,53.162415 
	C108.401207,51.870811 109.685699,50.501286 111.002533,49.165779 
z"/>
<path fill="#E00035" opacity="1.000000" stroke="none" 
	d="
M100.428467,115.000000 
	C100.798912,113.804199 101.326622,112.148773 102.442581,111.490280 
	C107.975060,108.225792 113.662788,105.224396 119.647903,102.065140 
	C120.000000,103.066673 120.000000,104.133339 119.635109,105.620529 
	C114.846809,109.027374 110.423409,112.013687 106.000000,115.000000 
	C104.285645,115.000000 102.571281,115.000000 100.428467,115.000000 
z"/>
<path fill="#9D0085" opacity="1.000000" stroke="none" 
	d="
M120.000000,76.562500 
	C117.058762,78.643059 114.117523,80.286118 110.793930,81.564560 
	C110.521065,78.475784 110.630554,75.751633 111.141907,73.019989 
	C114.362511,72.008339 117.181259,71.004166 120.000000,70.000000 
	C120.000000,72.041664 120.000000,74.083336 120.000000,76.562500 
z"/>
<path fill="#7C00AC" opacity="1.000000" stroke="none" 
	d="
M120.000000,54.999996 
	C120.000000,56.714375 120.000000,58.428753 119.629471,60.590946 
	C116.349777,62.026302 113.440613,63.013836 110.471428,63.588585 
	C110.451408,61.788670 110.491402,60.401543 110.867661,58.988022 
	C114.135948,57.641090 117.067970,56.320541 120.000000,54.999996 
z"/>
<path fill="#E9002B" opacity="1.000000" stroke="none" 
	d="
M106.437500,115.000000 
	C110.423409,112.013687 114.846809,109.027374 119.635109,106.020523 
	C120.000000,107.066673 120.000000,108.133339 119.637955,109.620010 
	C117.183937,111.693336 115.091965,113.346664 113.000000,115.000000 
	C110.958336,115.000000 108.916664,115.000000 106.437500,115.000000 
z"/>
<path fill="#900095" opacity="1.000000" stroke="none" 
	d="
M120.000000,69.583336 
	C117.181259,71.004166 114.362511,72.008339 111.002609,72.668518 
	C110.484886,70.550911 110.508331,68.777290 110.677551,67.250252 
	C111.787216,67.609840 112.867683,68.057808 113.692375,67.770798 
	C115.854477,67.018341 117.905006,65.945290 120.000000,65.000000 
	C120.000000,66.388893 120.000000,67.777779 120.000000,69.583336 
z"/>
<path fill="#8600A1" opacity="1.000000" stroke="none" 
	d="
M120.000000,64.600006 
	C117.905006,65.945290 115.854477,67.018341 113.692375,67.770798 
	C112.867683,68.057808 111.787216,67.609840 110.619339,66.877136 
	C110.454056,65.505424 110.492744,64.753395 110.531441,64.001373 
	C113.440613,63.013836 116.349777,62.026302 119.629471,61.019382 
	C120.000000,62.066669 120.000000,63.133343 120.000000,64.600006 
z"/>
<path fill="#7F1CC3" opacity="1.000000" stroke="none" 
	d="
M120.000000,54.624996 
	C117.067970,56.320541 114.135948,57.641090 110.721146,58.674519 
	C110.167778,58.167767 110.097176,57.948132 110.026573,57.728497 
	C113.109962,55.842003 116.193352,53.955509 119.638367,52.034508 
	C120.000000,52.750000 120.000000,53.500000 120.000000,54.624996 
z"/>
<path fill="#F10021" opacity="1.000000" stroke="none" 
	d="
M113.497902,115.000000 
	C115.091965,113.346664 117.183937,111.693336 119.637955,110.020004 
	C120.000000,111.594810 120.000000,113.189621 120.000000,115.000000 
	C118.000778,115.000000 115.998291,115.000000 113.497902,115.000000 
z"/>
<path fill="#FFFFFF" opacity="1.000000" stroke="none" 
	d="
M109.586243,57.686665 
	C110.097176,57.948132 110.167778,58.167767 110.384888,58.700905 
	C110.491402,60.401543 110.451408,61.788670 110.471428,63.588585 
	C110.492744,64.753395 110.454056,65.505424 110.473572,66.630562 
	C110.508331,68.777290 110.484886,70.550911 110.600746,72.675995 
	C110.630554,75.751633 110.521065,78.475784 110.471252,81.603424 
	C110.667786,84.595551 109.497826,85.783585 106.441338,85.473267 
	C103.963089,85.493317 101.920265,85.456482 99.442368,85.472336 
	C98.792908,85.512199 98.578522,85.499374 97.876854,85.511322 
	C97.389580,85.536110 97.002121,85.737640 96.809067,85.633087 
	C96.616005,85.528542 96.228752,85.735527 96.228752,85.735527 
	C95.103462,85.630608 93.978165,85.525696 92.428528,85.475388 
	C90.287651,85.492973 88.571106,85.455940 86.428581,85.474487 
	C84.286247,85.492111 82.569908,85.454170 80.427795,85.473267 
	C78.611206,85.491180 77.220383,85.452042 75.415604,85.471588 
	C72.957710,85.488960 70.913780,85.447632 68.435684,85.468048 
	C66.253937,85.693893 64.506332,85.857994 62.379829,86.094345 
	C60.284473,86.117889 58.568024,86.069183 56.427322,86.090111 
	C53.960831,86.103836 51.918583,86.047928 49.156750,85.737625 
	C46.619976,85.545769 44.802792,85.608299 42.552734,85.535233 
	C39.408157,85.481262 36.696453,85.562874 33.541977,85.513565 
	C29.408058,85.435020 25.716908,85.487396 22.025757,85.539772 
	C20.213518,85.380470 18.401278,85.221161 16.170179,85.025032 
	C16.170179,76.222740 16.170179,67.367294 16.170179,57.667706 
	C35.369480,57.667706 54.728539,57.667706 74.986130,57.651657 
	C79.238579,57.531185 82.592499,57.426762 86.386925,57.461830 
	C89.871857,57.501060 92.916298,57.400799 96.385353,57.439659 
	C98.874290,57.481613 100.938614,57.384449 103.002930,57.287285 
	C105.050591,57.406467 107.098244,57.525650 109.586243,57.686665 
z"/>
<path fill="#4400EF" opacity="1.000000" stroke="none" 
	d="
M21.982620,85.859734 
	C25.716908,85.487396 29.408058,85.435020 33.488976,85.824585 
	C30.626839,88.627312 27.523508,91.236137 24.089563,93.292999 
	C18.389227,96.707390 12.476418,99.767052 6.653108,102.976135 
	C6.549812,100.938988 6.446517,98.901848 6.450716,96.438393 
	C11.685301,92.734619 16.812391,89.457153 21.982620,85.859734 
z"/>
<path fill="#FFFFFF" opacity="1.000000" stroke="none" 
	d="
M44.572250,22.228685 
	C41.637589,26.442270 39.060703,30.448488 36.145512,34.191193 
	C35.304035,35.271538 33.552330,35.827366 32.108231,36.215118 
	C29.184914,37.000053 26.186567,37.505558 23.038774,38.164005 
	C26.222219,27.450289 34.509930,20.746433 44.088314,20.896053 
	C44.331249,20.899851 44.563862,21.564562 44.572250,22.228685 
z"/>
<path fill="#FFFFFF" opacity="1.000000" stroke="none" 
	d="
M69.905457,17.711056 
	C67.192863,21.827871 65.176888,26.779778 61.552326,29.803350 
	C58.527321,32.326775 53.617573,32.590828 49.542522,33.855492 
	C49.287449,33.395649 49.032379,32.935802 48.777306,32.475956 
	C51.820381,27.842236 54.292187,22.632744 58.142448,18.812571 
	C60.130531,16.840019 64.567268,17.335409 68.606766,16.971203 
	C69.512413,17.388145 69.708931,17.549603 69.905457,17.711056 
z"/>
<path fill="#FFFFFF" opacity="1.000000" stroke="none" 
	d="
M85.606926,12.912430 
	C89.209343,12.433769 92.419174,12.067825 96.634659,11.587230 
	C90.212463,19.151197 88.147797,30.670458 73.972404,27.482731 
	C77.920937,22.404764 81.567642,17.714954 85.606926,12.912430 
z"/>
<path fill="#4200F2" opacity="1.000000" stroke="none" 
	d="
M85.946426,57.322334 
	C82.592499,57.426762 79.238579,57.531185 75.437424,57.521454 
	C76.235428,55.881313 77.390800,54.268848 78.751961,52.854424 
	C80.034218,51.521988 81.533325,50.398228 82.980980,48.861969 
	C86.056358,48.485413 89.087791,48.429550 92.519150,48.822823 
	C91.760864,50.527519 90.569901,51.754768 89.453293,53.046303 
	C88.248085,54.440311 87.112427,55.894436 85.946426,57.322334 
z"/>
<path fill="#FFFFFF" opacity="1.000000" stroke="none" 
	d="
M105.086365,15.102642 
	C106.007080,13.939331 106.706726,13.078660 107.774170,11.765544 
	C108.541855,15.282963 109.215523,18.369637 110.027199,22.088598 
	C106.875870,22.784882 103.681854,23.490595 98.750938,24.580076 
	C101.308876,20.741808 103.087082,18.073544 105.086365,15.102642 
z"/>
<path fill="#FFFFFF" opacity="1.000000" stroke="none" 
	d="
M11.909014,26.736298 
	C14.357606,26.312258 16.383411,25.901571 19.670618,25.235165 
	C16.557301,29.792789 14.171442,33.285477 11.143811,37.717663 
	C10.429315,33.984032 9.787486,31.127254 9.437695,28.235159 
	C9.388513,27.828526 10.768025,27.249096 11.909014,26.736298 
z"/>
<path fill="#FFFFFF" opacity="1.000000" stroke="none" 
	d="
M69.026184,16.978455 
	C69.396523,16.523716 70.056557,16.317211 70.716599,16.110706 
	C70.629707,16.527206 70.542816,16.943705 70.180687,17.535629 
	C69.708931,17.549603 69.512413,17.388145 69.026184,16.978455 
z"/>
<path fill="#5200DF" opacity="1.000000" stroke="none" 
	d="
M86.386925,57.461830 
	C87.112427,55.894436 88.248085,54.440311 89.453293,53.046303 
	C90.569901,51.754768 91.760864,50.527519 92.956528,48.951607 
	C96.364693,48.554039 99.735420,48.476822 103.499443,48.845802 
	C102.572884,50.426624 101.169853,51.479595 99.954880,52.717194 
	C98.537712,54.160759 97.284874,55.765648 95.960732,57.300541 
	C92.916298,57.400799 89.871857,57.501060 86.386925,57.461830 
z"/>
<path fill="#5D00D2" opacity="1.000000" stroke="none" 
	d="
M96.385353,57.439659 
	C97.284874,55.765648 98.537712,54.160759 99.954880,52.717194 
	C101.169853,51.479595 102.572884,50.426624 103.939697,48.980721 
	C106.066254,48.784424 108.145859,48.899406 110.613998,49.090080 
	C109.685699,50.501286 108.401207,51.870811 107.042633,53.162415 
	C105.768944,54.373314 104.416870,55.501774 103.051109,56.976898 
	C100.938614,57.384449 98.874290,57.481613 96.385353,57.439659 
z"/>
<path fill="#5400DC" opacity="1.000000" stroke="none" 
	d="
M6.518219,103.379120 
	C12.476418,99.767052 18.389227,96.707390 24.089563,93.292999 
	C27.523508,91.236137 30.626839,88.627312 33.931744,85.955505 
	C36.696453,85.562874 39.408157,85.481262 42.506500,85.847061 
	C37.789402,89.815292 32.861160,93.632690 27.537899,96.782501 
	C20.750814,100.798462 13.644416,104.274788 6.675658,107.983727 
	C6.578215,106.583191 6.480772,105.182648 6.518219,103.379120 
z"/>
<path fill="#5C00D2" opacity="1.000000" stroke="none" 
	d="
M6.540688,108.371933 
	C13.644416,104.274788 20.750814,100.798462 27.537899,96.782501 
	C32.861160,93.632690 37.789402,89.815292 42.939369,85.982651 
	C44.802792,85.608299 46.619976,85.545769 48.718521,85.750053 
	C45.658302,88.567787 42.519199,91.456100 38.936901,93.605904 
	C28.495831,99.871773 17.877583,105.842400 7.002518,111.966675 
	C6.586062,110.923103 6.495891,109.841621 6.540688,108.371933 
z"/>
<path fill="#A80079" opacity="1.000000" stroke="none" 
	d="
M97.002121,85.737640 
	C97.002121,85.737640 97.389580,85.536110 97.581421,85.639801 
	C97.608231,85.780884 97.441368,85.806297 97.144928,85.801376 
	C97.017174,85.783028 97.002121,85.737640 97.002121,85.737640 
z"/>
<path fill="#8D0098" opacity="1.000000" stroke="none" 
	d="
M96.809067,85.633087 
	C97.002121,85.737640 97.017174,85.783028 97.018066,85.806602 
	C97.018951,85.830177 96.751175,85.838776 96.751175,85.838776 
	C96.751175,85.838776 96.485199,85.806602 96.356979,85.771065 
	C96.228752,85.735527 96.616005,85.528542 96.809067,85.633087 
z"/>
</svg>